<svg id="eOXqk2Pp5901" xmlns="http://www.w3.org/2000/svg" xmlns:xlink="http://www.w3.org/1999/xlink" viewBox="0 0 63 37" shape-rendering="geometricPrecision" text-rendering="geometricPrecision" width="63" height="37">
<style><![CDATA[
#eOXqk2Pp5902_ts {animation: eOXqk2Pp5902_ts__ts 3000ms linear 1 normal forwards}@keyframes eOXqk2Pp5902_ts__ts { 0% {transform: translate(31.603516px,18.984011px) scale(1,1)} 50% {transform: translate(31.603516px,18.984011px) scale(0.46,0.46)} 100% {transform: translate(31.603516px,18.984011px) scale(1,1)}}
]]></style>
<g id="eOXqk2Pp5902_ts" transform="translate(31.603516,18.984011) scale(1,1)"><g transform="translate(-31.603516,-18.984011)"><path d="M31.25,3.105469c-.09375.253906-.804688,2.484375-1.582031,4.949219l-1.441407,4.484374-5.3125.117188-5.332031.113281l4.347657,3.175781l4.375,3.199219-1.71875,4.945313c-.914063,2.738281-1.671876,4.996094-1.625,5.039062.023437.023438,1.945312-1.332031,4.257812-3.035156c2.679688-1.980469,4.304688-3.015625,4.464844-2.898438c1.488281,1.171876,8.21875,5.820313,8.285156,5.75.046875-.066406-.640625-2.253906-1.507812-4.898437-.984376-2.992187-1.511719-4.878906-1.398438-5.039063.113281-.140624,2.0625-1.613281,4.328125-3.246093l4.121094-2.992188-5.335938-.066406-5.332031-.046875-1.445312-4.328125c-.777344-2.367187-1.554688-4.625-1.714844-4.992187-.273438-.621094-.320313-.644532-.433594-.230469Zm0,0"/><path d="M9.636719,21.398438L8.628906,24.621094l-3.546875.046875-3.523437.066406l1.097656.808594c.617188.433593,1.855469,1.332031,2.746094,2l1.648437,1.195312-1.007812,3.152344c-.546875,1.75-.960938,3.199219-.9375,3.246094.089843.070312,1.144531-.644531,4.1875-2.832031l1.398437-.988282L13.300781,33.25c1.441407,1.058594,2.632813,1.816406,2.679688,1.726562.042969-.117187-.367188-1.566406-.894531-3.199218-.527344-1.65625-.914063-3.0625-.871094-3.105469.046875-.046875,1.304687-.96875,2.816406-2.074219l2.703125-1.976562h-6.867187l-1.078126-3.222656c-.59375-1.769532-1.074218-3.21875-1.097656-3.21875s-.503906,1.449218-1.054687,3.21875Zm0,0"/><path d="M51.300781,21.398438l-1.007812,3.199218-3.433594.070313-3.410156.066406l1.097656.808594c.621094.433593,1.855469,1.332031,2.75,2l1.648437,1.195312L47.9375,31.890625c-.550781,1.75-.960938,3.199219-.9375,3.246094.042969.023437,1.257812-.804688,2.722656-1.863281l2.632813-1.933594L55.078125,33.25c1.488281,1.058594,2.769531,1.863281,2.816406,1.816406s-.410156-1.472656-1.007812-3.199218c-.59375-1.699219-1.050781-3.152344-1.007813-3.195313.046875-.046875,1.375-.96875,2.933594-2.074219l2.835938-1.976562h-7.117188l-1.078125-3.222656c-.59375-1.769532-1.074219-3.21875-1.097656-3.21875s-.503907,1.449218-1.054688,3.21875Zm0,0"/></g></g></svg>
