<?xml version="1.0" encoding="UTF-8"?>
<svg xmlns="http://www.w3.org/2000/svg" xmlns:xlink="http://www.w3.org/1999/xlink" width="34px" height="32px" viewBox="0 0 33 32" version="1.1">
<g id="surface1">
<path style=" stroke:none;fill-rule:nonzero;fill:rgb(99.215686%,99.607843%,99.607843%);fill-opacity:1;" d="M 0 0 L 0 32 L 15.332031 32 L 15.332031 31.660156 C 11.515625 31.578125 8.117188 29.828125 5.332031 27.234375 C 10.425781 25.734375 14.375 20.691406 19.667969 23.40625 C 20.855469 24.015625 22.019531 24.519531 22.488281 25.886719 C 22.996094 27.367188 23.140625 29.089844 23.332031 30.636719 L 18 31.660156 L 18 32 L 33 32 L 33 18.382812 L 32.667969 18.382812 C 32.226562 23.492188 28.363281 27.375 24.332031 29.957031 C 24.105469 24.585938 20.578125 19.367188 25 15.292969 C 26.046875 14.328125 26.859375 13.582031 28.332031 13.621094 C 29.882812 13.660156 31.480469 14.007812 33 14.296875 L 33 0 L 18.332031 0 C 18.027344 5.089844 13.058594 13.269531 7.332031 11.957031 C 5.398438 11.515625 3.902344 9.300781 2.332031 8.171875 L 2.332031 7.828125 C 6.167969 4.355469 9.082031 0.589844 14.667969 0.339844 C 10.84375 -1.296875 4.160156 0 0 0 Z M 0 0 "/>
<path style=" stroke:none;fill-rule:nonzero;fill:rgb(76.470588%,81.568627%,91.372549%);fill-opacity:1;" d="M 14.890625 0.113281 L 15.109375 0.226562 Z M 14.890625 0.113281 "/>
<path style=" stroke:none;fill-rule:nonzero;fill:rgb(67.45098%,74.509804%,87.843137%);fill-opacity:1;" d="M 15.332031 0 L 15.332031 0.339844 L 17.667969 0.339844 Z M 15.332031 0 "/>
<path style=" stroke:none;fill-rule:nonzero;fill:rgb(76.470588%,81.568627%,91.372549%);fill-opacity:1;" d="M 17.890625 0.113281 L 18.109375 0.226562 L 17.890625 0.113281 M 12.667969 0.339844 L 13 0.679688 Z M 12.667969 0.339844 "/>
<path style=" stroke:none;fill-rule:nonzero;fill:rgb(67.45098%,74.509804%,87.843137%);fill-opacity:1;" d="M 13 0.339844 L 13.332031 0.679688 Z M 13 0.339844 "/>
<path style=" stroke:none;fill-rule:nonzero;fill:rgb(52.941176%,63.137255%,82.352941%);fill-opacity:1;" d="M 13.332031 0.339844 L 13.667969 0.679688 Z M 13.332031 0.339844 "/>
<path style=" stroke:none;fill-rule:nonzero;fill:rgb(23.529412%,40.784314%,70.980392%);fill-opacity:1;" d="M 18.332031 0.339844 C 13.730469 0.339844 9.71875 1 6 4.023438 C 4.964844 4.867188 2.78125 6.582031 3.152344 8.171875 C 4.042969 11.988281 10.101562 12.78125 12.871094 10.890625 C 15.128906 9.34375 17.589844 2.976562 18.332031 0.339844 Z M 18.332031 0.339844 "/>
<path style=" stroke:none;fill-rule:nonzero;fill:rgb(52.941176%,63.137255%,82.352941%);fill-opacity:1;" d="M 18.332031 0.339844 L 18.667969 0.679688 Z M 18.332031 0.339844 "/>
<path style=" stroke:none;fill-rule:nonzero;fill:rgb(67.45098%,74.509804%,87.843137%);fill-opacity:1;" d="M 20 0.339844 L 19.667969 1.019531 Z M 20 0.339844 "/>
<path style=" stroke:none;fill-rule:nonzero;fill:rgb(76.470588%,81.568627%,91.372549%);fill-opacity:1;" d="M 11.332031 0.679688 L 11.667969 1.019531 Z M 11.332031 0.679688 "/>
<path style=" stroke:none;fill-rule:nonzero;fill:rgb(67.45098%,74.509804%,87.843137%);fill-opacity:1;" d="M 11.667969 0.679688 L 12 1.019531 Z M 11.667969 0.679688 "/>
<path style=" stroke:none;fill-rule:nonzero;fill:rgb(52.941176%,63.137255%,82.352941%);fill-opacity:1;" d="M 12 0.679688 L 12.332031 1.019531 Z M 12 0.679688 "/>
<path style=" stroke:none;fill-rule:nonzero;fill:rgb(23.529412%,40.784314%,70.980392%);fill-opacity:1;" d="M 32.332031 12.9375 C 31.945312 8.445312 28.464844 4.34375 24.667969 2.308594 C 23.570312 1.722656 21.382812 0.378906 20.128906 1.0625 C 16.539062 3.023438 17.679688 10.21875 21.339844 11.28125 C 24.84375 12.296875 28.742188 12.253906 32.332031 12.9375 Z M 32.332031 12.9375 "/>
<path style=" stroke:none;fill-rule:nonzero;fill:rgb(52.941176%,63.137255%,82.352941%);fill-opacity:1;" d="M 21 0.679688 L 21.332031 1.019531 Z M 21 0.679688 "/>
<path style=" stroke:none;fill-rule:nonzero;fill:rgb(76.470588%,81.568627%,91.372549%);fill-opacity:1;" d="M 21.332031 0.679688 L 21.667969 1.019531 L 21.332031 0.679688 M 10.332031 1.019531 L 10.667969 1.363281 Z M 10.332031 1.019531 "/>
<path style=" stroke:none;fill-rule:nonzero;fill:rgb(52.941176%,63.137255%,82.352941%);fill-opacity:1;" d="M 10.667969 1.019531 L 11 1.363281 L 10.667969 1.019531 M 18 1.019531 L 18.332031 1.363281 L 18 1.019531 M 22 1.019531 L 22.332031 1.363281 Z M 22 1.019531 "/>
<path style=" stroke:none;fill-rule:nonzero;fill:rgb(76.470588%,81.568627%,91.372549%);fill-opacity:1;" d="M 22.332031 1.019531 L 22.667969 1.363281 L 22.332031 1.019531 M 9.667969 1.363281 L 10 1.703125 Z M 9.667969 1.363281 "/>
<path style=" stroke:none;fill-rule:nonzero;fill:rgb(52.941176%,63.137255%,82.352941%);fill-opacity:1;" d="M 10 1.363281 L 10.332031 1.703125 L 10 1.363281 M 19.332031 1.363281 L 19.667969 1.703125 L 19.332031 1.363281 M 23 1.363281 L 23.332031 1.703125 Z M 23 1.363281 "/>
<path style=" stroke:none;fill-rule:nonzero;fill:rgb(76.470588%,81.568627%,91.372549%);fill-opacity:1;" d="M 23.332031 1.363281 L 23.667969 1.703125 Z M 23.332031 1.363281 "/>
<path style=" stroke:none;fill-rule:nonzero;fill:rgb(67.45098%,74.509804%,87.843137%);fill-opacity:1;" d="M 9 1.703125 L 9.332031 2.042969 L 9 1.703125 M 17.667969 1.703125 L 18 2.042969 Z M 17.667969 1.703125 "/>
<path style=" stroke:none;fill-rule:nonzero;fill:rgb(52.941176%,63.137255%,82.352941%);fill-opacity:1;" d="M 23.667969 1.703125 L 24 2.042969 Z M 23.667969 1.703125 "/>
<path style=" stroke:none;fill-rule:nonzero;fill:rgb(76.470588%,81.568627%,91.372549%);fill-opacity:1;" d="M 24 1.703125 L 24.332031 2.042969 Z M 24 1.703125 "/>
<path style=" stroke:none;fill-rule:nonzero;fill:rgb(67.45098%,74.509804%,87.843137%);fill-opacity:1;" d="M 8.332031 2.042969 L 8.667969 2.382812 Z M 8.332031 2.042969 "/>
<path style=" stroke:none;fill-rule:nonzero;fill:rgb(52.941176%,63.137255%,82.352941%);fill-opacity:1;" d="M 19 2.042969 L 19.332031 2.382812 L 19 2.042969 M 24.332031 2.042969 L 24.667969 2.382812 Z M 24.332031 2.042969 "/>
<path style=" stroke:none;fill-rule:nonzero;fill:rgb(76.470588%,81.568627%,91.372549%);fill-opacity:1;" d="M 24.667969 2.042969 L 25 2.382812 L 24.667969 2.042969 M 7.667969 2.382812 L 8 2.722656 Z M 7.667969 2.382812 "/>
<path style=" stroke:none;fill-rule:nonzero;fill:rgb(52.941176%,63.137255%,82.352941%);fill-opacity:1;" d="M 8 2.382812 L 8.332031 2.722656 Z M 8 2.382812 "/>
<path style=" stroke:none;fill-rule:nonzero;fill:rgb(67.45098%,74.509804%,87.843137%);fill-opacity:1;" d="M 17.332031 2.382812 L 17.667969 2.722656 Z M 17.332031 2.382812 "/>
<path style=" stroke:none;fill-rule:nonzero;fill:rgb(52.941176%,63.137255%,82.352941%);fill-opacity:1;" d="M 25 2.382812 L 25.332031 2.722656 L 25 2.382812 M 7.332031 2.722656 L 7.667969 3.0625 L 7.332031 2.722656 M 18.667969 2.722656 L 19 3.0625 Z M 18.667969 2.722656 "/>
<path style=" stroke:none;fill-rule:nonzero;fill:rgb(67.45098%,74.509804%,87.843137%);fill-opacity:1;" d="M 25.667969 2.722656 L 26 3.0625 Z M 25.667969 2.722656 "/>
<path style=" stroke:none;fill-rule:nonzero;fill:rgb(76.470588%,81.568627%,91.372549%);fill-opacity:1;" d="M 6.667969 3.0625 L 7 3.402344 Z M 6.667969 3.0625 "/>
<path style=" stroke:none;fill-rule:nonzero;fill:rgb(67.45098%,74.509804%,87.843137%);fill-opacity:1;" d="M 17 3.0625 L 17.332031 3.402344 Z M 17 3.0625 "/>
<path style=" stroke:none;fill-rule:nonzero;fill:rgb(76.470588%,81.568627%,91.372549%);fill-opacity:1;" d="M 18.332031 3.0625 L 18.667969 3.402344 Z M 18.332031 3.0625 "/>
<path style=" stroke:none;fill-rule:nonzero;fill:rgb(52.941176%,63.137255%,82.352941%);fill-opacity:1;" d="M 26 3.0625 L 26.332031 3.402344 Z M 26 3.0625 "/>
<path style=" stroke:none;fill-rule:nonzero;fill:rgb(67.45098%,74.509804%,87.843137%);fill-opacity:1;" d="M 6.332031 3.402344 L 6.667969 3.746094 Z M 6.332031 3.402344 "/>
<path style=" stroke:none;fill-rule:nonzero;fill:rgb(52.941176%,63.137255%,82.352941%);fill-opacity:1;" d="M 18.332031 3.402344 L 18.667969 3.746094 Z M 18.332031 3.402344 "/>
<path style=" stroke:none;fill-rule:nonzero;fill:rgb(76.470588%,81.568627%,91.372549%);fill-opacity:1;" d="M 26.667969 3.402344 L 27 3.746094 Z M 26.667969 3.402344 "/>
<path style=" stroke:none;fill-rule:nonzero;fill:rgb(52.941176%,63.137255%,82.352941%);fill-opacity:1;" d="M 6 3.746094 L 6.332031 4.085938 Z M 6 3.746094 "/>
<path style=" stroke:none;fill-rule:nonzero;fill:rgb(67.45098%,74.509804%,87.843137%);fill-opacity:1;" d="M 16.667969 3.746094 L 17 4.085938 Z M 16.667969 3.746094 "/>
<path style=" stroke:none;fill-rule:nonzero;fill:rgb(76.470588%,81.568627%,91.372549%);fill-opacity:1;" d="M 18 3.746094 L 18.332031 4.085938 Z M 18 3.746094 "/>
<path style=" stroke:none;fill-rule:nonzero;fill:rgb(67.45098%,74.509804%,87.843137%);fill-opacity:1;" d="M 27 3.746094 L 27.332031 4.085938 Z M 27 3.746094 "/>
<path style=" stroke:none;fill-rule:nonzero;fill:rgb(52.941176%,63.137255%,82.352941%);fill-opacity:1;" d="M 5.667969 4.085938 L 6 4.425781 L 5.667969 4.085938 M 18 4.085938 L 18.332031 4.425781 L 18 4.085938 M 27.332031 4.085938 L 27.667969 4.425781 Z M 27.332031 4.085938 "/>
<path style=" stroke:none;fill-rule:nonzero;fill:rgb(76.470588%,81.568627%,91.372549%);fill-opacity:1;" d="M 5 4.425781 L 5.332031 4.765625 L 5 4.425781 M 16.332031 4.425781 L 16.667969 4.765625 L 16.332031 4.425781 M 17.667969 4.425781 L 18 4.765625 Z M 17.667969 4.425781 "/>
<path style=" stroke:none;fill-rule:nonzero;fill:rgb(52.941176%,63.137255%,82.352941%);fill-opacity:1;" d="M 27.667969 4.425781 L 28 4.765625 Z M 27.667969 4.425781 "/>
<path style=" stroke:none;fill-rule:nonzero;fill:rgb(76.470588%,81.568627%,91.372549%);fill-opacity:1;" d="M 4.667969 4.765625 L 5 5.105469 Z M 4.667969 4.765625 "/>
<path style=" stroke:none;fill-rule:nonzero;fill:rgb(52.941176%,63.137255%,82.352941%);fill-opacity:1;" d="M 16 4.765625 L 16.332031 5.105469 L 16 4.765625 M 17.667969 4.765625 L 18 5.105469 L 17.667969 4.765625 M 28 4.765625 L 28.332031 5.105469 Z M 28 4.765625 "/>
<path style=" stroke:none;fill-rule:nonzero;fill:rgb(76.470588%,81.568627%,91.372549%);fill-opacity:1;" d="M 4.332031 5.105469 L 4.667969 5.445312 L 4.332031 5.105469 M 16 5.105469 L 16.332031 5.445312 L 16 5.105469 M 17.332031 5.105469 L 17.667969 5.445312 Z M 17.332031 5.105469 "/>
<path style=" stroke:none;fill-rule:nonzero;fill:rgb(52.941176%,63.137255%,82.352941%);fill-opacity:1;" d="M 28.332031 5.105469 L 28.667969 5.445312 Z M 28.332031 5.105469 "/>
<path style=" stroke:none;fill-rule:nonzero;fill:rgb(76.470588%,81.568627%,91.372549%);fill-opacity:1;" d="M 4 5.445312 L 4.332031 5.789062 Z M 4 5.445312 "/>
<path style=" stroke:none;fill-rule:nonzero;fill:rgb(52.941176%,63.137255%,82.352941%);fill-opacity:1;" d="M 15.667969 5.445312 L 16 5.789062 L 15.667969 5.445312 M 17.445312 5.671875 L 17.554688 5.902344 L 17.445312 5.671875 M 28.667969 5.445312 L 29 5.789062 Z M 28.667969 5.445312 "/>
<path style=" stroke:none;fill-rule:nonzero;fill:rgb(76.470588%,81.568627%,91.372549%);fill-opacity:1;" d="M 15.667969 5.789062 L 16 6.128906 Z M 15.667969 5.789062 "/>
<path style=" stroke:none;fill-rule:nonzero;fill:rgb(52.941176%,63.137255%,82.352941%);fill-opacity:1;" d="M 29 5.789062 L 29.332031 6.128906 L 29 5.789062 M 3.667969 6.128906 L 4 6.46875 L 3.667969 6.128906 M 15.332031 6.128906 L 15.667969 6.46875 Z M 15.332031 6.128906 "/>
<path style=" stroke:none;fill-rule:nonzero;fill:rgb(67.45098%,74.509804%,87.843137%);fill-opacity:1;" d="M 29.332031 6.128906 L 29.667969 6.46875 Z M 29.332031 6.128906 "/>
<path style=" stroke:none;fill-rule:nonzero;fill:rgb(52.941176%,63.137255%,82.352941%);fill-opacity:1;" d="M 3.332031 6.46875 L 3.667969 6.808594 Z M 3.332031 6.46875 "/>
<path style=" stroke:none;fill-rule:nonzero;fill:rgb(76.470588%,81.568627%,91.372549%);fill-opacity:1;" d="M 15.332031 6.46875 L 15.667969 6.808594 Z M 15.332031 6.46875 "/>
<path style=" stroke:none;fill-rule:nonzero;fill:rgb(52.941176%,63.137255%,82.352941%);fill-opacity:1;" d="M 17.667969 6.46875 L 18 6.808594 Z M 17.667969 6.46875 "/>
<path style=" stroke:none;fill-rule:nonzero;fill:rgb(76.470588%,81.568627%,91.372549%);fill-opacity:1;" d="M 29.667969 6.46875 L 30 6.808594 Z M 29.667969 6.46875 "/>
<path style=" stroke:none;fill-rule:nonzero;fill:rgb(67.45098%,74.509804%,87.843137%);fill-opacity:1;" d="M 3 6.808594 L 3.332031 7.148438 Z M 3 6.808594 "/>
<path style=" stroke:none;fill-rule:nonzero;fill:rgb(52.941176%,63.137255%,82.352941%);fill-opacity:1;" d="M 15 6.808594 L 15.332031 7.148438 Z M 15 6.808594 "/>
<path style=" stroke:none;fill-rule:nonzero;fill:rgb(76.470588%,81.568627%,91.372549%);fill-opacity:1;" d="M 15 7.148438 L 15.332031 7.488281 Z M 15 7.148438 "/>
<path style=" stroke:none;fill-rule:nonzero;fill:rgb(67.45098%,74.509804%,87.843137%);fill-opacity:1;" d="M 16.332031 7.148438 L 16.667969 7.488281 Z M 16.332031 7.148438 "/>
<path style=" stroke:none;fill-rule:nonzero;fill:rgb(52.941176%,63.137255%,82.352941%);fill-opacity:1;" d="M 18 7.148438 L 18.332031 7.488281 L 18 7.148438 M 30 7.148438 L 30.332031 7.488281 L 30 7.148438 M 2.667969 7.488281 L 3 7.828125 L 2.667969 7.488281 M 14.667969 7.488281 L 15 7.828125 Z M 14.667969 7.488281 "/>
<path style=" stroke:none;fill-rule:nonzero;fill:rgb(23.529412%,40.784314%,70.980392%);fill-opacity:1;" d="M 16.332031 7.488281 C 14.425781 12.167969 12.890625 12.414062 8.332031 13.277344 C 11.300781 17.238281 12.308594 17.664062 11.332031 22.808594 L 16.667969 20.691406 L 21.667969 22.808594 L 21.230469 17.703125 L 24.667969 13.277344 L 19.464844 12.25 Z M 16.332031 7.488281 "/>
<path style=" stroke:none;fill-rule:nonzero;fill:rgb(52.941176%,63.137255%,82.352941%);fill-opacity:1;" d="M 16.667969 7.488281 L 17 7.828125 Z M 16.667969 7.488281 "/>
<path style=" stroke:none;fill-rule:nonzero;fill:rgb(67.45098%,74.509804%,87.843137%);fill-opacity:1;" d="M 30.332031 7.488281 L 30.667969 7.828125 L 30.332031 7.488281 M 2.332031 7.828125 L 2.667969 8.171875 Z M 2.332031 7.828125 "/>
<path style=" stroke:none;fill-rule:nonzero;fill:rgb(76.470588%,81.568627%,91.372549%);fill-opacity:1;" d="M 14.667969 7.828125 L 15 8.171875 Z M 14.667969 7.828125 "/>
<path style=" stroke:none;fill-rule:nonzero;fill:rgb(52.941176%,63.137255%,82.352941%);fill-opacity:1;" d="M 16 7.828125 L 16.332031 8.171875 Z M 16 7.828125 "/>
<path style=" stroke:none;fill-rule:nonzero;fill:rgb(67.45098%,74.509804%,87.843137%);fill-opacity:1;" d="M 18.332031 7.828125 L 18.667969 8.171875 Z M 18.332031 7.828125 "/>
<path style=" stroke:none;fill-rule:nonzero;fill:rgb(52.941176%,63.137255%,82.352941%);fill-opacity:1;" d="M 2.667969 8.171875 L 3 8.511719 L 2.667969 8.171875 M 14.332031 8.171875 L 14.667969 8.511719 L 14.332031 8.171875 M 17 8.171875 L 17.332031 8.511719 L 17 8.171875 M 30.667969 8.171875 L 31 8.511719 Z M 30.667969 8.171875 "/>
<path style=" stroke:none;fill-rule:nonzero;fill:rgb(67.45098%,74.509804%,87.843137%);fill-opacity:1;" d="M 3 8.511719 L 3.332031 8.851562 Z M 3 8.511719 "/>
<path style=" stroke:none;fill-rule:nonzero;fill:rgb(52.941176%,63.137255%,82.352941%);fill-opacity:1;" d="M 15.667969 8.511719 L 16 8.851562 Z M 15.667969 8.511719 "/>
<path style=" stroke:none;fill-rule:nonzero;fill:rgb(67.45098%,74.509804%,87.843137%);fill-opacity:1;" d="M 18.667969 8.511719 L 19 8.851562 Z M 18.667969 8.511719 "/>
<path style=" stroke:none;fill-rule:nonzero;fill:rgb(76.470588%,81.568627%,91.372549%);fill-opacity:1;" d="M 31 8.511719 L 31.332031 8.851562 Z M 31 8.511719 "/>
<path style=" stroke:none;fill-rule:nonzero;fill:rgb(67.45098%,74.509804%,87.843137%);fill-opacity:1;" d="M 3.332031 8.851562 L 3.667969 9.191406 Z M 3.332031 8.851562 "/>
<path style=" stroke:none;fill-rule:nonzero;fill:rgb(52.941176%,63.137255%,82.352941%);fill-opacity:1;" d="M 14 8.851562 L 14.332031 9.191406 L 14 8.851562 M 17.332031 8.851562 L 17.667969 9.191406 L 17.332031 8.851562 M 31 8.851562 L 31.332031 9.191406 L 31 8.851562 M 1.667969 9.191406 L 2 9.53125 Z M 1.667969 9.191406 "/>
<path style=" stroke:none;fill-rule:nonzero;fill:rgb(76.470588%,81.568627%,91.372549%);fill-opacity:1;" d="M 2 9.191406 L 3.332031 10.554688 Z M 2 9.191406 "/>
<path style=" stroke:none;fill-rule:nonzero;fill:rgb(67.45098%,74.509804%,87.843137%);fill-opacity:1;" d="M 3.667969 9.191406 L 4 9.53125 Z M 3.667969 9.191406 "/>
<path style=" stroke:none;fill-rule:nonzero;fill:rgb(52.941176%,63.137255%,82.352941%);fill-opacity:1;" d="M 15.332031 9.191406 L 15.667969 9.53125 Z M 15.332031 9.191406 "/>
<path style=" stroke:none;fill-rule:nonzero;fill:rgb(67.45098%,74.509804%,87.843137%);fill-opacity:1;" d="M 19 9.191406 L 19.332031 9.53125 Z M 19 9.191406 "/>
<path style=" stroke:none;fill-rule:nonzero;fill:rgb(76.470588%,81.568627%,91.372549%);fill-opacity:1;" d="M 31.332031 9.191406 L 31.667969 9.53125 Z M 31.332031 9.191406 "/>
<path style=" stroke:none;fill-rule:nonzero;fill:rgb(23.529412%,40.784314%,70.980392%);fill-opacity:1;" d="M 1.667969 9.53125 C 0.300781 13.890625 -0.152344 18.199219 1.832031 22.46875 C 2.40625 23.707031 3.449219 25.914062 5.003906 25.972656 C 8.574219 26.101562 11.734375 21.128906 10.460938 17.800781 C 9.4375 15.121094 4.15625 10.71875 1.667969 9.53125 Z M 1.667969 9.53125 "/>
<path style=" stroke:none;fill-rule:nonzero;fill:rgb(76.470588%,81.568627%,91.372549%);fill-opacity:1;" d="M 4 9.53125 L 4.332031 9.871094 Z M 4 9.53125 "/>
<path style=" stroke:none;fill-rule:nonzero;fill:rgb(52.941176%,63.137255%,82.352941%);fill-opacity:1;" d="M 13.667969 9.53125 L 14 9.871094 L 13.667969 9.53125 M 17.667969 9.53125 L 18 9.871094 L 17.667969 9.53125 M 31.332031 9.53125 L 31.667969 9.871094 Z M 31.332031 9.53125 "/>
<path style=" stroke:none;fill-rule:nonzero;fill:rgb(67.45098%,74.509804%,87.843137%);fill-opacity:1;" d="M 1.332031 9.871094 L 1.667969 10.210938 Z M 1.332031 9.871094 "/>
<path style=" stroke:none;fill-rule:nonzero;fill:rgb(76.470588%,81.568627%,91.372549%);fill-opacity:1;" d="M 4.332031 9.871094 L 4.667969 10.210938 Z M 4.332031 9.871094 "/>
<path style=" stroke:none;fill-rule:nonzero;fill:rgb(52.941176%,63.137255%,82.352941%);fill-opacity:1;" d="M 15 9.871094 L 15.332031 10.210938 Z M 15 9.871094 "/>
<path style=" stroke:none;fill-rule:nonzero;fill:rgb(67.45098%,74.509804%,87.843137%);fill-opacity:1;" d="M 19.332031 9.871094 L 19.667969 10.210938 Z M 19.332031 9.871094 "/>
<path style=" stroke:none;fill-rule:nonzero;fill:rgb(76.470588%,81.568627%,91.372549%);fill-opacity:1;" d="M 4.667969 10.210938 L 5 10.554688 Z M 4.667969 10.210938 "/>
<path style=" stroke:none;fill-rule:nonzero;fill:rgb(67.45098%,74.509804%,87.843137%);fill-opacity:1;" d="M 13.332031 10.210938 L 13.667969 10.554688 Z M 13.332031 10.210938 "/>
<path style=" stroke:none;fill-rule:nonzero;fill:rgb(76.470588%,81.568627%,91.372549%);fill-opacity:1;" d="M 14.667969 10.210938 L 15 10.554688 Z M 14.667969 10.210938 "/>
<path style=" stroke:none;fill-rule:nonzero;fill:rgb(52.941176%,63.137255%,82.352941%);fill-opacity:1;" d="M 18 10.210938 L 18.332031 10.554688 L 18 10.210938 M 31.667969 10.210938 L 32 10.554688 Z M 31.667969 10.210938 "/>
<path style=" stroke:none;fill-rule:nonzero;fill:rgb(76.470588%,81.568627%,91.372549%);fill-opacity:1;" d="M 1 10.554688 L 1.332031 10.894531 Z M 1 10.554688 "/>
<path style=" stroke:none;fill-rule:nonzero;fill:rgb(67.45098%,74.509804%,87.843137%);fill-opacity:1;" d="M 3.332031 10.554688 L 3.667969 10.894531 Z M 3.332031 10.554688 "/>
<path style=" stroke:none;fill-rule:nonzero;fill:rgb(76.470588%,81.568627%,91.372549%);fill-opacity:1;" d="M 5 10.554688 L 5.332031 10.894531 Z M 5 10.554688 "/>
<path style=" stroke:none;fill-rule:nonzero;fill:rgb(52.941176%,63.137255%,82.352941%);fill-opacity:1;" d="M 14.667969 10.554688 L 15 10.894531 Z M 14.667969 10.554688 "/>
<path style=" stroke:none;fill-rule:nonzero;fill:rgb(76.470588%,81.568627%,91.372549%);fill-opacity:1;" d="M 18.332031 10.554688 L 18.667969 10.894531 Z M 18.332031 10.554688 "/>
<path style=" stroke:none;fill-rule:nonzero;fill:rgb(67.45098%,74.509804%,87.843137%);fill-opacity:1;" d="M 19.667969 10.554688 L 20 10.894531 Z M 19.667969 10.554688 "/>
<path style=" stroke:none;fill-rule:nonzero;fill:rgb(52.941176%,63.137255%,82.352941%);fill-opacity:1;" d="M 1 10.894531 L 1.332031 11.234375 Z M 1 10.894531 "/>
<path style=" stroke:none;fill-rule:nonzero;fill:rgb(67.45098%,74.509804%,87.843137%);fill-opacity:1;" d="M 3.667969 10.894531 L 4 11.234375 L 3.667969 10.894531 M 13 10.894531 L 13.332031 11.234375 Z M 13 10.894531 "/>
<path style=" stroke:none;fill-rule:nonzero;fill:rgb(76.470588%,81.568627%,91.372549%);fill-opacity:1;" d="M 14.332031 10.894531 L 14.667969 11.234375 Z M 14.332031 10.894531 "/>
<path style=" stroke:none;fill-rule:nonzero;fill:rgb(52.941176%,63.137255%,82.352941%);fill-opacity:1;" d="M 18.332031 10.894531 L 18.667969 11.234375 L 18.332031 10.894531 M 20 10.894531 L 20.332031 11.234375 Z M 20 10.894531 "/>
<path style=" stroke:none;fill-rule:nonzero;fill:rgb(76.470588%,81.568627%,91.372549%);fill-opacity:1;" d="M 32 10.894531 L 32.332031 11.234375 Z M 32 10.894531 "/>
<path style=" stroke:none;fill-rule:nonzero;fill:rgb(52.941176%,63.137255%,82.352941%);fill-opacity:1;" d="M 4 11.234375 L 4.332031 11.574219 L 4 11.234375 M 6 11.234375 L 6.332031 11.574219 L 6 11.234375 M 11 11.234375 L 11 11.574219 L 12 11.574219 Z M 11 11.234375 "/>
<path style=" stroke:none;fill-rule:nonzero;fill:rgb(67.45098%,74.509804%,87.843137%);fill-opacity:1;" d="M 12 11.234375 L 12.332031 11.574219 Z M 12 11.234375 "/>
<path style=" stroke:none;fill-rule:nonzero;fill:rgb(76.470588%,81.568627%,91.372549%);fill-opacity:1;" d="M 12.332031 11.234375 L 12.667969 11.574219 Z M 12.332031 11.234375 "/>
<path style=" stroke:none;fill-rule:nonzero;fill:rgb(52.941176%,63.137255%,82.352941%);fill-opacity:1;" d="M 14.332031 11.234375 L 14.667969 11.574219 Z M 14.332031 11.234375 "/>
<path style=" stroke:none;fill-rule:nonzero;fill:rgb(76.470588%,81.568627%,91.372549%);fill-opacity:1;" d="M 18.667969 11.234375 L 19 11.574219 L 18.667969 11.234375 M 20.554688 11.347656 L 20.777344 11.460938 Z M 20.554688 11.347656 "/>
<path style=" stroke:none;fill-rule:nonzero;fill:rgb(67.45098%,74.509804%,87.843137%);fill-opacity:1;" d="M 21 11.234375 L 21.332031 11.574219 Z M 21 11.234375 "/>
<path style=" stroke:none;fill-rule:nonzero;fill:rgb(52.941176%,63.137255%,82.352941%);fill-opacity:1;" d="M 21.554688 11.347656 L 21.777344 11.460938 L 21.554688 11.347656 M 32 11.234375 L 32.332031 11.574219 Z M 32 11.234375 "/>
<path style=" stroke:none;fill-rule:nonzero;fill:rgb(76.470588%,81.568627%,91.372549%);fill-opacity:1;" d="M 0.667969 11.574219 L 1 11.914062 Z M 0.667969 11.574219 "/>
<path style=" stroke:none;fill-rule:nonzero;fill:rgb(52.941176%,63.137255%,82.352941%);fill-opacity:1;" d="M 4.332031 11.574219 L 4.667969 11.914062 L 4.332031 11.574219 M 6.332031 11.574219 L 6.667969 11.914062 L 6.332031 11.574219 M 8.890625 11.6875 L 9.109375 11.800781 Z M 8.890625 11.6875 "/>
<path style=" stroke:none;fill-rule:nonzero;fill:rgb(67.45098%,74.509804%,87.843137%);fill-opacity:1;" d="M 9.332031 11.574219 L 9.667969 11.914062 Z M 9.332031 11.574219 "/>
<path style=" stroke:none;fill-rule:nonzero;fill:rgb(76.470588%,81.568627%,91.372549%);fill-opacity:1;" d="M 9.890625 11.6875 L 10.109375 11.800781 L 9.890625 11.6875 M 14 11.574219 L 14.332031 11.914062 Z M 14 11.574219 "/>
<path style=" stroke:none;fill-rule:nonzero;fill:rgb(52.941176%,63.137255%,82.352941%);fill-opacity:1;" d="M 18.667969 11.574219 L 19 11.914062 Z M 18.667969 11.574219 "/>
<path style=" stroke:none;fill-rule:nonzero;fill:rgb(76.470588%,81.568627%,91.372549%);fill-opacity:1;" d="M 23 11.574219 L 23.332031 11.914062 Z M 23 11.574219 "/>
<path style=" stroke:none;fill-rule:nonzero;fill:rgb(67.45098%,74.509804%,87.843137%);fill-opacity:1;" d="M 23.332031 11.574219 L 23.667969 11.914062 Z M 23.332031 11.574219 "/>
<path style=" stroke:none;fill-rule:nonzero;fill:rgb(52.941176%,63.137255%,82.352941%);fill-opacity:1;" d="M 23.890625 11.6875 L 24.109375 11.800781 L 23.890625 11.6875 M 0.777344 12.140625 L 0.890625 12.367188 L 0.777344 12.140625 M 4.667969 11.914062 L 5 12.253906 L 4.667969 11.914062 M 6.667969 11.914062 L 7 12.253906 Z M 6.667969 11.914062 "/>
<path style=" stroke:none;fill-rule:nonzero;fill:rgb(67.45098%,74.509804%,87.843137%);fill-opacity:1;" d="M 7 11.914062 L 7.332031 12.253906 Z M 7 11.914062 "/>
<path style=" stroke:none;fill-rule:nonzero;fill:rgb(76.470588%,81.568627%,91.372549%);fill-opacity:1;" d="M 7.554688 12.027344 L 7.777344 12.140625 Z M 7.554688 12.027344 "/>
<path style=" stroke:none;fill-rule:nonzero;fill:rgb(52.941176%,63.137255%,82.352941%);fill-opacity:1;" d="M 14 11.914062 L 14.332031 12.253906 Z M 14 11.914062 "/>
<path style=" stroke:none;fill-rule:nonzero;fill:rgb(76.470588%,81.568627%,91.372549%);fill-opacity:1;" d="M 19 11.914062 L 19.332031 12.253906 L 19 11.914062 M 25.332031 11.914062 L 25.667969 12.253906 Z M 25.332031 11.914062 "/>
<path style=" stroke:none;fill-rule:nonzero;fill:rgb(67.45098%,74.509804%,87.843137%);fill-opacity:1;" d="M 25.890625 12.027344 L 26.109375 12.140625 Z M 25.890625 12.027344 "/>
<path style=" stroke:none;fill-rule:nonzero;fill:rgb(52.941176%,63.137255%,82.352941%);fill-opacity:1;" d="M 26.554688 12.027344 L 26.777344 12.140625 L 26.554688 12.027344 M 5 12.253906 L 5.332031 12.597656 Z M 5 12.253906 "/>
<path style=" stroke:none;fill-rule:nonzero;fill:rgb(76.470588%,81.568627%,91.372549%);fill-opacity:1;" d="M 13.222656 12.367188 L 13.445312 12.480469 Z M 13.222656 12.367188 "/>
<path style=" stroke:none;fill-rule:nonzero;fill:rgb(67.45098%,74.509804%,87.843137%);fill-opacity:1;" d="M 13.667969 12.253906 L 14 12.597656 Z M 13.667969 12.253906 "/>
<path style=" stroke:none;fill-rule:nonzero;fill:rgb(52.941176%,63.137255%,82.352941%);fill-opacity:1;" d="M 19 12.253906 L 19.332031 12.597656 Z M 19 12.253906 "/>
<path style=" stroke:none;fill-rule:nonzero;fill:rgb(67.45098%,74.509804%,87.843137%);fill-opacity:1;" d="M 19.332031 12.253906 L 19.667969 12.597656 Z M 19.332031 12.253906 "/>
<path style=" stroke:none;fill-rule:nonzero;fill:rgb(76.470588%,81.568627%,91.372549%);fill-opacity:1;" d="M 19.890625 12.367188 L 20.109375 12.480469 L 19.890625 12.367188 M 27.890625 12.367188 L 28.109375 12.480469 Z M 27.890625 12.367188 "/>
<path style=" stroke:none;fill-rule:nonzero;fill:rgb(67.45098%,74.509804%,87.843137%);fill-opacity:1;" d="M 28.332031 12.253906 L 28.667969 12.597656 Z M 28.332031 12.253906 "/>
<path style=" stroke:none;fill-rule:nonzero;fill:rgb(52.941176%,63.137255%,82.352941%);fill-opacity:1;" d="M 28.890625 12.367188 L 29.109375 12.480469 Z M 28.890625 12.367188 "/>
<path style=" stroke:none;fill-rule:nonzero;fill:rgb(67.45098%,74.509804%,87.843137%);fill-opacity:1;" d="M 32.332031 12.253906 L 32.667969 12.597656 Z M 32.332031 12.253906 "/>
<path style=" stroke:none;fill-rule:nonzero;fill:rgb(52.941176%,63.137255%,82.352941%);fill-opacity:1;" d="M 5.332031 12.597656 L 5.667969 12.9375 Z M 5.332031 12.597656 "/>
<path style=" stroke:none;fill-rule:nonzero;fill:rgb(76.470588%,81.568627%,91.372549%);fill-opacity:1;" d="M 10.667969 12.597656 L 11 12.9375 Z M 10.667969 12.597656 "/>
<path style=" stroke:none;fill-rule:nonzero;fill:rgb(67.45098%,74.509804%,87.843137%);fill-opacity:1;" d="M 11.222656 12.710938 L 11.445312 12.824219 Z M 11.222656 12.710938 "/>
<path style=" stroke:none;fill-rule:nonzero;fill:rgb(52.941176%,63.137255%,82.352941%);fill-opacity:1;" d="M 11.890625 12.710938 L 12.109375 12.824219 L 11.890625 12.710938 M 21 12.597656 L 21 12.9375 L 22 12.9375 Z M 21 12.597656 "/>
<path style=" stroke:none;fill-rule:nonzero;fill:rgb(67.45098%,74.509804%,87.843137%);fill-opacity:1;" d="M 22 12.597656 L 22.332031 12.9375 Z M 22 12.597656 "/>
<path style=" stroke:none;fill-rule:nonzero;fill:rgb(76.470588%,81.568627%,91.372549%);fill-opacity:1;" d="M 22.332031 12.597656 L 22.667969 12.9375 L 22.332031 12.597656 M 30.222656 12.710938 L 30.445312 12.824219 Z M 30.222656 12.710938 "/>
<path style=" stroke:none;fill-rule:nonzero;fill:rgb(67.45098%,74.509804%,87.843137%);fill-opacity:1;" d="M 30.667969 12.597656 L 31 12.9375 Z M 30.667969 12.597656 "/>
<path style=" stroke:none;fill-rule:nonzero;fill:rgb(52.941176%,63.137255%,82.352941%);fill-opacity:1;" d="M 31.222656 12.710938 L 31.445312 12.824219 L 31.222656 12.710938 M 32.332031 12.597656 L 32.667969 12.9375 Z M 32.332031 12.597656 "/>
<path style=" stroke:none;fill-rule:nonzero;fill:rgb(76.470588%,81.568627%,91.372549%);fill-opacity:1;" d="M 0.332031 12.9375 L 0.667969 13.277344 Z M 0.332031 12.9375 "/>
<path style=" stroke:none;fill-rule:nonzero;fill:rgb(52.941176%,63.137255%,82.352941%);fill-opacity:1;" d="M 5.667969 12.9375 L 6 13.277344 Z M 5.667969 12.9375 "/>
<path style=" stroke:none;fill-rule:nonzero;fill:rgb(76.470588%,81.568627%,91.372549%);fill-opacity:1;" d="M 8.109375 13.164062 L 8.222656 13.390625 Z M 8.109375 13.164062 "/>
<path style=" stroke:none;fill-rule:nonzero;fill:rgb(67.45098%,74.509804%,87.843137%);fill-opacity:1;" d="M 8.332031 12.9375 L 8.667969 13.277344 Z M 8.332031 12.9375 "/>
<path style=" stroke:none;fill-rule:nonzero;fill:rgb(52.941176%,63.137255%,82.352941%);fill-opacity:1;" d="M 8.890625 13.050781 L 9.109375 13.164062 L 8.890625 13.050781 M 24 12.9375 L 24 13.277344 L 25 13.617188 Z M 24 12.9375 "/>
<path style=" stroke:none;fill-rule:nonzero;fill:rgb(67.45098%,74.509804%,87.843137%);fill-opacity:1;" d="M 24.667969 12.9375 L 25 13.277344 Z M 24.667969 12.9375 "/>
<path style=" stroke:none;fill-rule:nonzero;fill:rgb(76.470588%,81.568627%,91.372549%);fill-opacity:1;" d="M 25.109375 13.164062 L 25.222656 13.390625 Z M 25.109375 13.164062 "/>
<path style=" stroke:none;fill-rule:nonzero;fill:rgb(67.45098%,74.509804%,87.843137%);fill-opacity:1;" d="M 0.332031 13.277344 L 0.667969 13.617188 Z M 0.332031 13.277344 "/>
<path style=" stroke:none;fill-rule:nonzero;fill:rgb(76.470588%,81.568627%,91.372549%);fill-opacity:1;" d="M 6.332031 13.277344 L 6.667969 13.617188 L 6.332031 13.277344 M 26.890625 13.390625 L 27.109375 13.503906 Z M 26.890625 13.390625 "/>
<path style=" stroke:none;fill-rule:nonzero;fill:rgb(52.941176%,63.137255%,82.352941%);fill-opacity:1;" d="M 0.332031 13.617188 L 0.332031 14.636719 L 0.667969 14.636719 Z M 0.332031 13.617188 "/>
<path style=" stroke:none;fill-rule:nonzero;fill:rgb(76.470588%,81.568627%,91.372549%);fill-opacity:1;" d="M 6.667969 13.617188 L 7 13.957031 L 6.667969 13.617188 M 8.332031 13.617188 L 8.667969 13.957031 Z M 8.332031 13.617188 "/>
<path style=" stroke:none;fill-rule:nonzero;fill:rgb(52.941176%,63.137255%,82.352941%);fill-opacity:1;" d="M 24.332031 13.617188 L 24.667969 13.957031 Z M 24.332031 13.617188 "/>
<path style=" stroke:none;fill-rule:nonzero;fill:rgb(67.45098%,74.509804%,87.843137%);fill-opacity:1;" d="M 26.332031 13.617188 L 25.667969 14.636719 Z M 26.332031 13.617188 "/>
<path style=" stroke:none;fill-rule:nonzero;fill:rgb(23.529412%,40.784314%,70.980392%);fill-opacity:1;" d="M 24.667969 29.617188 C 30.601562 26.238281 32.667969 20.894531 32.667969 14.296875 C 30.960938 14.222656 28.640625 13.292969 27 13.835938 C 20.28125 16.0625 23.402344 24.621094 24.667969 29.617188 Z M 24.667969 29.617188 "/>
<path style=" stroke:none;fill-rule:nonzero;fill:rgb(52.941176%,63.137255%,82.352941%);fill-opacity:1;" d="M 28.554688 13.730469 L 28.777344 13.84375 Z M 28.554688 13.730469 "/>
<path style=" stroke:none;fill-rule:nonzero;fill:rgb(67.45098%,74.509804%,87.843137%);fill-opacity:1;" d="M 29 13.617188 L 29.332031 13.957031 Z M 29 13.617188 "/>
<path style=" stroke:none;fill-rule:nonzero;fill:rgb(76.470588%,81.568627%,91.372549%);fill-opacity:1;" d="M 29.554688 13.730469 L 29.777344 13.84375 L 29.554688 13.730469 M 7 13.957031 L 7.332031 14.296875 L 7 13.957031 M 8.667969 13.957031 L 9 14.296875 Z M 8.667969 13.957031 "/>
<path style=" stroke:none;fill-rule:nonzero;fill:rgb(52.941176%,63.137255%,82.352941%);fill-opacity:1;" d="M 24 13.957031 L 24.332031 14.296875 L 24 13.957031 M 30.890625 14.070312 L 31.109375 14.183594 Z M 30.890625 14.070312 "/>
<path style=" stroke:none;fill-rule:nonzero;fill:rgb(67.45098%,74.509804%,87.843137%);fill-opacity:1;" d="M 31.332031 13.957031 L 31.667969 14.296875 Z M 31.332031 13.957031 "/>
<path style=" stroke:none;fill-rule:nonzero;fill:rgb(76.470588%,81.568627%,91.372549%);fill-opacity:1;" d="M 31.890625 14.070312 L 32.109375 14.183594 L 31.890625 14.070312 M 7.332031 14.296875 L 7.667969 14.636719 L 7.332031 14.296875 M 9 14.296875 L 9.332031 14.636719 Z M 9 14.296875 "/>
<path style=" stroke:none;fill-rule:nonzero;fill:rgb(52.941176%,63.137255%,82.352941%);fill-opacity:1;" d="M 23.667969 14.296875 L 24 14.636719 Z M 23.667969 14.296875 "/>
<path style=" stroke:none;fill-rule:nonzero;fill:rgb(67.45098%,74.509804%,87.843137%);fill-opacity:1;" d="M 32.667969 14.296875 L 33 14.636719 L 32.667969 14.296875 M 7.667969 14.636719 L 8 14.980469 Z M 7.667969 14.636719 "/>
<path style=" stroke:none;fill-rule:nonzero;fill:rgb(52.941176%,63.137255%,82.352941%);fill-opacity:1;" d="M 9.667969 14.636719 L 10 14.980469 Z M 9.667969 14.636719 "/>
<path style=" stroke:none;fill-rule:nonzero;fill:rgb(67.45098%,74.509804%,87.843137%);fill-opacity:1;" d="M 23.332031 14.636719 L 23.667969 14.980469 Z M 23.332031 14.636719 "/>
<path style=" stroke:none;fill-rule:nonzero;fill:rgb(52.941176%,63.137255%,82.352941%);fill-opacity:1;" d="M 25.332031 14.636719 L 25.667969 14.980469 L 25.332031 14.636719 M 32.667969 14.636719 L 32.667969 17.363281 L 33 17.363281 Z M 32.667969 14.636719 "/>
<path style=" stroke:none;fill-rule:nonzero;fill:rgb(67.45098%,74.509804%,87.843137%);fill-opacity:1;" d="M 8 14.980469 L 8.332031 15.320312 Z M 8 14.980469 "/>
<path style=" stroke:none;fill-rule:nonzero;fill:rgb(52.941176%,63.137255%,82.352941%);fill-opacity:1;" d="M 10 14.980469 L 10.332031 15.320312 Z M 10 14.980469 "/>
<path style=" stroke:none;fill-rule:nonzero;fill:rgb(67.45098%,74.509804%,87.843137%);fill-opacity:1;" d="M 23 14.980469 L 23.332031 15.320312 Z M 23 14.980469 "/>
<path style=" stroke:none;fill-rule:nonzero;fill:rgb(52.941176%,63.137255%,82.352941%);fill-opacity:1;" d="M 25 14.980469 L 25.332031 15.320312 Z M 25 14.980469 "/>
<path style=" stroke:none;fill-rule:nonzero;fill:rgb(67.45098%,74.509804%,87.843137%);fill-opacity:1;" d="M 8.332031 15.320312 L 8.667969 15.660156 Z M 8.332031 15.320312 "/>
<path style=" stroke:none;fill-rule:nonzero;fill:rgb(52.941176%,63.137255%,82.352941%);fill-opacity:1;" d="M 10.332031 15.320312 L 10.667969 15.660156 Z M 10.332031 15.320312 "/>
<path style=" stroke:none;fill-rule:nonzero;fill:rgb(67.45098%,74.509804%,87.843137%);fill-opacity:1;" d="M 22.667969 15.320312 L 23 15.660156 Z M 22.667969 15.320312 "/>
<path style=" stroke:none;fill-rule:nonzero;fill:rgb(52.941176%,63.137255%,82.352941%);fill-opacity:1;" d="M 24.667969 15.320312 L 25 15.660156 L 24.667969 15.320312 M 8.667969 15.660156 L 9 16 L 8.667969 15.660156 M 10.667969 15.660156 L 11 16 Z M 10.667969 15.660156 "/>
<path style=" stroke:none;fill-rule:nonzero;fill:rgb(76.470588%,81.568627%,91.372549%);fill-opacity:1;" d="M 22.332031 15.660156 L 22.667969 16 Z M 22.332031 15.660156 "/>
<path style=" stroke:none;fill-rule:nonzero;fill:rgb(52.941176%,63.137255%,82.352941%);fill-opacity:1;" d="M 24.332031 15.660156 L 24.667969 16 L 24.332031 15.660156 M 9 16 L 9.332031 16.339844 L 9 16 M 11 16 L 11.332031 16.339844 Z M 11 16 "/>
<path style=" stroke:none;fill-rule:nonzero;fill:rgb(76.470588%,81.568627%,91.372549%);fill-opacity:1;" d="M 22 16 L 22.332031 16.339844 Z M 22 16 "/>
<path style=" stroke:none;fill-rule:nonzero;fill:rgb(52.941176%,63.137255%,82.352941%);fill-opacity:1;" d="M 24 16 L 24.332031 16.339844 L 24 16 M 9.332031 16.339844 L 9.667969 16.679688 L 9.332031 16.339844 M 11.332031 16.339844 L 11.667969 16.679688 Z M 11.332031 16.339844 "/>
<path style=" stroke:none;fill-rule:nonzero;fill:rgb(76.470588%,81.568627%,91.372549%);fill-opacity:1;" d="M 21.667969 16.339844 L 22 16.679688 L 21.667969 16.339844 M 23.332031 16.339844 L 23.667969 16.679688 Z M 23.332031 16.339844 "/>
<path style=" stroke:none;fill-rule:nonzero;fill:rgb(52.941176%,63.137255%,82.352941%);fill-opacity:1;" d="M 9.667969 16.679688 L 10 17.019531 L 9.667969 16.679688 M 11.667969 16.679688 L 12 17.019531 Z M 11.667969 16.679688 "/>
<path style=" stroke:none;fill-rule:nonzero;fill:rgb(76.470588%,81.568627%,91.372549%);fill-opacity:1;" d="M 21.332031 16.679688 L 21.667969 17.019531 L 21.332031 16.679688 M 23 16.679688 L 23.332031 17.019531 Z M 23 16.679688 "/>
<path style=" stroke:none;fill-rule:nonzero;fill:rgb(52.941176%,63.137255%,82.352941%);fill-opacity:1;" d="M 10 17.019531 L 10.332031 17.363281 Z M 10 17.019531 "/>
<path style=" stroke:none;fill-rule:nonzero;fill:rgb(67.45098%,74.509804%,87.843137%);fill-opacity:1;" d="M 12.109375 17.25 L 12.222656 17.476562 Z M 12.109375 17.25 "/>
<path style=" stroke:none;fill-rule:nonzero;fill:rgb(76.470588%,81.568627%,91.372549%);fill-opacity:1;" d="M 21 17.019531 L 21.332031 17.363281 L 21 17.019531 M 22.667969 17.019531 L 23 17.363281 Z M 22.667969 17.019531 "/>
<path style=" stroke:none;fill-rule:nonzero;fill:rgb(52.941176%,63.137255%,82.352941%);fill-opacity:1;" d="M 0.445312 17.589844 L 0.554688 17.816406 Z M 0.445312 17.589844 "/>
<path style=" stroke:none;fill-rule:nonzero;fill:rgb(76.470588%,81.568627%,91.372549%);fill-opacity:1;" d="M 22.332031 17.363281 L 22.667969 17.703125 Z M 22.332031 17.363281 "/>
<path style=" stroke:none;fill-rule:nonzero;fill:rgb(67.45098%,74.509804%,87.843137%);fill-opacity:1;" d="M 32.667969 17.363281 L 33 17.703125 Z M 32.667969 17.363281 "/>
<path style=" stroke:none;fill-rule:nonzero;fill:rgb(52.941176%,63.137255%,82.352941%);fill-opacity:1;" d="M 10.667969 17.703125 L 11 18.042969 L 10.667969 17.703125 M 12.109375 17.929688 L 12.222656 18.15625 Z M 12.109375 17.929688 "/>
<path style=" stroke:none;fill-rule:nonzero;fill:rgb(76.470588%,81.568627%,91.372549%);fill-opacity:1;" d="M 32.777344 17.929688 L 32.890625 18.15625 Z M 32.777344 17.929688 "/>
<path style=" stroke:none;fill-rule:nonzero;fill:rgb(67.45098%,74.509804%,87.843137%);fill-opacity:1;" d="M 0.332031 18.042969 L 0.667969 18.382812 L 0.332031 18.042969 M 10.667969 18.042969 L 11 18.382812 Z M 10.667969 18.042969 "/>
<path style=" stroke:none;fill-rule:nonzero;fill:rgb(76.470588%,81.568627%,91.372549%);fill-opacity:1;" d="M 21 18.042969 L 21.332031 18.382812 Z M 21 18.042969 "/>
<path style=" stroke:none;fill-rule:nonzero;fill:rgb(52.941176%,63.137255%,82.352941%);fill-opacity:1;" d="M 22.445312 18.269531 L 22.554688 18.496094 Z M 22.445312 18.269531 "/>
<path style=" stroke:none;fill-rule:nonzero;fill:rgb(76.470588%,81.568627%,91.372549%);fill-opacity:1;" d="M 0.445312 18.609375 L 0.554688 18.835938 L 0.445312 18.609375 M 10.667969 18.382812 L 11 18.722656 Z M 10.667969 18.382812 "/>
<path style=" stroke:none;fill-rule:nonzero;fill:rgb(67.45098%,74.509804%,87.843137%);fill-opacity:1;" d="M 21 18.382812 L 21.332031 18.722656 Z M 21 18.382812 "/>
<path style=" stroke:none;fill-rule:nonzero;fill:rgb(52.941176%,63.137255%,82.352941%);fill-opacity:1;" d="M 21 18.722656 L 21.332031 19.0625 Z M 21 18.722656 "/>
<path style=" stroke:none;fill-rule:nonzero;fill:rgb(67.45098%,74.509804%,87.843137%);fill-opacity:1;" d="M 22.332031 18.722656 L 22.667969 19.0625 Z M 22.332031 18.722656 "/>
<path style=" stroke:none;fill-rule:nonzero;fill:rgb(76.470588%,81.568627%,91.372549%);fill-opacity:1;" d="M 11.667969 19.0625 L 12 19.402344 L 11.667969 19.0625 M 22.332031 19.0625 L 22.667969 19.402344 Z M 22.332031 19.0625 "/>
<path style=" stroke:none;fill-rule:nonzero;fill:rgb(52.941176%,63.137255%,82.352941%);fill-opacity:1;" d="M 32.332031 19.0625 L 32.667969 19.402344 L 32.332031 19.0625 M 0.667969 19.402344 L 1 19.746094 L 0.667969 19.402344 M 10.445312 19.632812 L 10.554688 19.859375 Z M 10.445312 19.632812 "/>
<path style=" stroke:none;fill-rule:nonzero;fill:rgb(67.45098%,74.509804%,87.843137%);fill-opacity:1;" d="M 11.667969 19.402344 L 12 19.746094 L 11.667969 19.402344 M 32.332031 19.402344 L 32.667969 19.746094 L 32.332031 19.402344 M 0.667969 19.746094 L 1 20.085938 Z M 0.667969 19.746094 "/>
<path style=" stroke:none;fill-rule:nonzero;fill:rgb(52.941176%,63.137255%,82.352941%);fill-opacity:1;" d="M 11.777344 19.972656 L 11.890625 20.199219 Z M 11.777344 19.972656 "/>
<path style=" stroke:none;fill-rule:nonzero;fill:rgb(76.470588%,81.568627%,91.372549%);fill-opacity:1;" d="M 21.332031 19.746094 L 21.667969 20.085938 L 21.332031 19.746094 M 32.332031 19.746094 L 32.667969 20.085938 L 32.332031 19.746094 M 0.667969 20.085938 L 1 20.425781 L 0.667969 20.085938 M 10.445312 20.3125 L 10.554688 20.539062 Z M 10.445312 20.3125 "/>
<path style=" stroke:none;fill-rule:nonzero;fill:rgb(67.45098%,74.509804%,87.843137%);fill-opacity:1;" d="M 21.332031 20.085938 L 21.667969 20.425781 Z M 21.332031 20.085938 "/>
<path style=" stroke:none;fill-rule:nonzero;fill:rgb(52.941176%,63.137255%,82.352941%);fill-opacity:1;" d="M 22.667969 20.085938 L 23 20.425781 Z M 22.667969 20.085938 "/>
<path style=" stroke:none;fill-rule:nonzero;fill:rgb(67.45098%,74.509804%,87.843137%);fill-opacity:1;" d="M 16 20.425781 L 16.332031 20.765625 Z M 16 20.425781 "/>
<path style=" stroke:none;fill-rule:nonzero;fill:rgb(52.941176%,63.137255%,82.352941%);fill-opacity:1;" d="M 17 20.425781 L 17.332031 20.765625 L 17 20.425781 M 21.445312 20.652344 L 21.554688 20.878906 Z M 21.445312 20.652344 "/>
<path style=" stroke:none;fill-rule:nonzero;fill:rgb(67.45098%,74.509804%,87.843137%);fill-opacity:1;" d="M 22.667969 20.425781 L 23 20.765625 Z M 22.667969 20.425781 "/>
<path style=" stroke:none;fill-rule:nonzero;fill:rgb(52.941176%,63.137255%,82.352941%);fill-opacity:1;" d="M 32 20.425781 L 32.332031 20.765625 L 32 20.425781 M 1 20.765625 L 1.332031 21.105469 Z M 1 20.765625 "/>
<path style=" stroke:none;fill-rule:nonzero;fill:rgb(76.470588%,81.568627%,91.372549%);fill-opacity:1;" d="M 11.332031 20.765625 L 11.667969 21.105469 Z M 11.332031 20.765625 "/>
<path style=" stroke:none;fill-rule:nonzero;fill:rgb(67.45098%,74.509804%,87.843137%);fill-opacity:1;" d="M 15.332031 20.765625 L 15.667969 21.105469 Z M 15.332031 20.765625 "/>
<path style=" stroke:none;fill-rule:nonzero;fill:rgb(52.941176%,63.137255%,82.352941%);fill-opacity:1;" d="M 17.667969 20.765625 L 18 21.105469 Z M 17.667969 20.765625 "/>
<path style=" stroke:none;fill-rule:nonzero;fill:rgb(76.470588%,81.568627%,91.372549%);fill-opacity:1;" d="M 22.667969 20.765625 L 23 21.105469 L 22.667969 20.765625 M 32 20.765625 L 32.332031 21.105469 L 32 20.765625 M 1 21.105469 L 1.332031 21.445312 Z M 1 21.105469 "/>
<path style=" stroke:none;fill-rule:nonzero;fill:rgb(52.941176%,63.137255%,82.352941%);fill-opacity:1;" d="M 10.109375 21.332031 L 10.222656 21.558594 Z M 10.109375 21.332031 "/>
<path style=" stroke:none;fill-rule:nonzero;fill:rgb(67.45098%,74.509804%,87.843137%);fill-opacity:1;" d="M 11.332031 21.105469 L 11.667969 21.445312 L 11.332031 21.105469 M 14.667969 21.105469 L 15 21.445312 Z M 14.667969 21.105469 "/>
<path style=" stroke:none;fill-rule:nonzero;fill:rgb(52.941176%,63.137255%,82.352941%);fill-opacity:1;" d="M 18.332031 21.105469 L 18.667969 21.445312 L 18.332031 21.105469 M 1.332031 21.445312 L 1.667969 21.789062 L 1.332031 21.445312 M 11.445312 21.671875 L 11.554688 21.902344 Z M 11.445312 21.671875 "/>
<path style=" stroke:none;fill-rule:nonzero;fill:rgb(67.45098%,74.509804%,87.843137%);fill-opacity:1;" d="M 14 21.445312 L 14.332031 21.789062 L 14 21.445312 M 19 21.445312 L 19.332031 21.789062 Z M 19 21.445312 "/>
<path style=" stroke:none;fill-rule:nonzero;fill:rgb(76.470588%,81.568627%,91.372549%);fill-opacity:1;" d="M 21.667969 21.445312 L 22 21.789062 Z M 21.667969 21.445312 "/>
<path style=" stroke:none;fill-rule:nonzero;fill:rgb(67.45098%,74.509804%,87.843137%);fill-opacity:1;" d="M 31.667969 21.445312 L 32 21.789062 Z M 31.667969 21.445312 "/>
<path style=" stroke:none;fill-rule:nonzero;fill:rgb(76.470588%,81.568627%,91.372549%);fill-opacity:1;" d="M 1.332031 21.789062 L 1.667969 22.128906 Z M 1.332031 21.789062 "/>
<path style=" stroke:none;fill-rule:nonzero;fill:rgb(67.45098%,74.509804%,87.843137%);fill-opacity:1;" d="M 10 21.789062 L 10.332031 22.128906 L 10 21.789062 M 13.332031 21.789062 L 13.667969 22.128906 Z M 13.332031 21.789062 "/>
<path style=" stroke:none;fill-rule:nonzero;fill:rgb(76.470588%,81.568627%,91.372549%);fill-opacity:1;" d="M 16 21.789062 L 16.332031 22.128906 Z M 16 21.789062 "/>
<path style=" stroke:none;fill-rule:nonzero;fill:rgb(52.941176%,63.137255%,82.352941%);fill-opacity:1;" d="M 16.554688 21.902344 L 16.777344 22.015625 Z M 16.554688 21.902344 "/>
<path style=" stroke:none;fill-rule:nonzero;fill:rgb(67.45098%,74.509804%,87.843137%);fill-opacity:1;" d="M 19.667969 21.789062 L 20 22.128906 L 19.667969 21.789062 M 21.667969 21.789062 L 22 22.128906 Z M 21.667969 21.789062 "/>
<path style=" stroke:none;fill-rule:nonzero;fill:rgb(52.941176%,63.137255%,82.352941%);fill-opacity:1;" d="M 23 21.789062 L 23.332031 22.128906 Z M 23 21.789062 "/>
<path style=" stroke:none;fill-rule:nonzero;fill:rgb(76.470588%,81.568627%,91.372549%);fill-opacity:1;" d="M 10 22.128906 L 10.332031 22.46875 Z M 10 22.128906 "/>
<path style=" stroke:none;fill-rule:nonzero;fill:rgb(67.45098%,74.509804%,87.843137%);fill-opacity:1;" d="M 12.667969 22.128906 L 13 22.46875 Z M 12.667969 22.128906 "/>
<path style=" stroke:none;fill-rule:nonzero;fill:rgb(76.470588%,81.568627%,91.372549%);fill-opacity:1;" d="M 15.332031 22.128906 L 15.667969 22.46875 Z M 15.332031 22.128906 "/>
<path style=" stroke:none;fill-rule:nonzero;fill:rgb(52.941176%,63.137255%,82.352941%);fill-opacity:1;" d="M 15.667969 22.128906 L 16 22.46875 Z M 15.667969 22.128906 "/>
<path style=" stroke:none;fill-rule:nonzero;fill:rgb(23.529412%,40.784314%,70.980392%);fill-opacity:1;" d="M 6 27.234375 C 7.941406 31.109375 14.523438 31.992188 18.332031 31.601562 C 19.550781 31.476562 21.917969 31.3125 22.652344 30.152344 C 23.167969 29.335938 22.785156 28.113281 22.640625 27.234375 C 21.859375 22.5625 16.898438 21.753906 13.332031 23.574219 C 10.90625 24.8125 8.503906 26.167969 6 27.234375 Z M 6 27.234375 "/>
<path style=" stroke:none;fill-rule:nonzero;fill:rgb(52.941176%,63.137255%,82.352941%);fill-opacity:1;" d="M 17.332031 22.128906 L 17.667969 22.46875 Z M 17.332031 22.128906 "/>
<path style=" stroke:none;fill-rule:nonzero;fill:rgb(67.45098%,74.509804%,87.843137%);fill-opacity:1;" d="M 20.332031 22.128906 L 20.667969 22.46875 Z M 20.332031 22.128906 "/>
<path style=" stroke:none;fill-rule:nonzero;fill:rgb(52.941176%,63.137255%,82.352941%);fill-opacity:1;" d="M 21.777344 22.355469 L 21.890625 22.582031 Z M 21.777344 22.355469 "/>
<path style=" stroke:none;fill-rule:nonzero;fill:rgb(67.45098%,74.509804%,87.843137%);fill-opacity:1;" d="M 23 22.128906 L 23.332031 22.46875 Z M 23 22.128906 "/>
<path style=" stroke:none;fill-rule:nonzero;fill:rgb(52.941176%,63.137255%,82.352941%);fill-opacity:1;" d="M 31.332031 22.128906 L 31.667969 22.46875 Z M 31.332031 22.128906 "/>
<path style=" stroke:none;fill-rule:nonzero;fill:rgb(67.45098%,74.509804%,87.843137%);fill-opacity:1;" d="M 1.667969 22.46875 L 2 22.808594 L 1.667969 22.46875 M 12 22.46875 L 12.332031 22.808594 Z M 12 22.46875 "/>
<path style=" stroke:none;fill-rule:nonzero;fill:rgb(76.470588%,81.568627%,91.372549%);fill-opacity:1;" d="M 14.667969 22.46875 L 15 22.808594 Z M 14.667969 22.46875 "/>
<path style=" stroke:none;fill-rule:nonzero;fill:rgb(52.941176%,63.137255%,82.352941%);fill-opacity:1;" d="M 15 22.46875 L 15.332031 22.808594 L 15 22.46875 M 18 22.46875 L 18.332031 22.808594 Z M 18 22.46875 "/>
<path style=" stroke:none;fill-rule:nonzero;fill:rgb(67.45098%,74.509804%,87.843137%);fill-opacity:1;" d="M 21 22.46875 L 21.332031 22.808594 Z M 21 22.46875 "/>
<path style=" stroke:none;fill-rule:nonzero;fill:rgb(76.470588%,81.568627%,91.372549%);fill-opacity:1;" d="M 23 22.46875 L 23.332031 22.808594 L 23 22.46875 M 31.332031 22.46875 L 31.667969 22.808594 L 31.332031 22.46875 M 11 22.808594 L 11.332031 23.148438 Z M 11 22.808594 "/>
<path style=" stroke:none;fill-rule:nonzero;fill:rgb(67.45098%,74.509804%,87.843137%);fill-opacity:1;" d="M 11.332031 22.808594 L 11.667969 23.148438 Z M 11.332031 22.808594 "/>
<path style=" stroke:none;fill-rule:nonzero;fill:rgb(76.470588%,81.568627%,91.372549%);fill-opacity:1;" d="M 14 22.808594 L 14.332031 23.148438 Z M 14 22.808594 "/>
<path style=" stroke:none;fill-rule:nonzero;fill:rgb(52.941176%,63.137255%,82.352941%);fill-opacity:1;" d="M 14.332031 22.808594 L 14.667969 23.148438 L 14.332031 22.808594 M 18.667969 22.808594 L 19 23.148438 Z M 18.667969 22.808594 "/>
<path style=" stroke:none;fill-rule:nonzero;fill:rgb(67.45098%,74.509804%,87.843137%);fill-opacity:1;" d="M 21.667969 22.808594 L 22 23.148438 Z M 21.667969 22.808594 "/>
<path style=" stroke:none;fill-rule:nonzero;fill:rgb(52.941176%,63.137255%,82.352941%);fill-opacity:1;" d="M 31 22.808594 L 31.332031 23.148438 Z M 31 22.808594 "/>
<path style=" stroke:none;fill-rule:nonzero;fill:rgb(67.45098%,74.509804%,87.843137%);fill-opacity:1;" d="M 2 23.148438 L 2.332031 23.488281 Z M 2 23.148438 "/>
<path style=" stroke:none;fill-rule:nonzero;fill:rgb(52.941176%,63.137255%,82.352941%);fill-opacity:1;" d="M 9.777344 23.375 L 9.890625 23.601562 Z M 9.777344 23.375 "/>
<path style=" stroke:none;fill-rule:nonzero;fill:rgb(76.470588%,81.568627%,91.372549%);fill-opacity:1;" d="M 13.332031 23.148438 L 13.667969 23.488281 Z M 13.332031 23.148438 "/>
<path style=" stroke:none;fill-rule:nonzero;fill:rgb(52.941176%,63.137255%,82.352941%);fill-opacity:1;" d="M 13.667969 23.148438 L 14 23.488281 L 13.667969 23.148438 M 19.332031 23.148438 L 19.667969 23.488281 L 19.332031 23.148438 M 2.332031 23.488281 L 2.667969 23.828125 Z M 2.332031 23.488281 "/>
<path style=" stroke:none;fill-rule:nonzero;fill:rgb(76.470588%,81.568627%,91.372549%);fill-opacity:1;" d="M 12.667969 23.488281 L 13 23.828125 Z M 12.667969 23.488281 "/>
<path style=" stroke:none;fill-rule:nonzero;fill:rgb(52.941176%,63.137255%,82.352941%);fill-opacity:1;" d="M 13 23.488281 L 13.332031 23.828125 L 13 23.488281 M 20 23.488281 L 20.332031 23.828125 L 20 23.488281 M 23.445312 23.714844 L 23.554688 23.941406 Z M 23.445312 23.714844 "/>
<path style=" stroke:none;fill-rule:nonzero;fill:rgb(67.45098%,74.509804%,87.843137%);fill-opacity:1;" d="M 30.667969 23.488281 L 31 23.828125 Z M 30.667969 23.488281 "/>
<path style=" stroke:none;fill-rule:nonzero;fill:rgb(76.470588%,81.568627%,91.372549%);fill-opacity:1;" d="M 2.332031 23.828125 L 2.667969 24.171875 Z M 2.332031 23.828125 "/>
<path style=" stroke:none;fill-rule:nonzero;fill:rgb(67.45098%,74.509804%,87.843137%);fill-opacity:1;" d="M 9.332031 23.828125 L 9.667969 24.171875 Z M 9.332031 23.828125 "/>
<path style=" stroke:none;fill-rule:nonzero;fill:rgb(76.470588%,81.568627%,91.372549%);fill-opacity:1;" d="M 12 23.828125 L 12.332031 24.171875 Z M 12 23.828125 "/>
<path style=" stroke:none;fill-rule:nonzero;fill:rgb(52.941176%,63.137255%,82.352941%);fill-opacity:1;" d="M 12.332031 23.828125 L 12.667969 24.171875 L 12.332031 23.828125 M 20.667969 23.828125 L 21 24.171875 L 20.667969 23.828125 M 2.667969 24.171875 L 3 24.511719 Z M 2.667969 24.171875 "/>
<path style=" stroke:none;fill-rule:nonzero;fill:rgb(67.45098%,74.509804%,87.843137%);fill-opacity:1;" d="M 8.667969 24.171875 L 9 24.511719 Z M 8.667969 24.171875 "/>
<path style=" stroke:none;fill-rule:nonzero;fill:rgb(76.470588%,81.568627%,91.372549%);fill-opacity:1;" d="M 11.332031 24.171875 L 11.667969 24.511719 Z M 11.332031 24.171875 "/>
<path style=" stroke:none;fill-rule:nonzero;fill:rgb(52.941176%,63.137255%,82.352941%);fill-opacity:1;" d="M 11.667969 24.171875 L 12 24.511719 L 11.667969 24.171875 M 21.332031 24.171875 L 21.667969 24.511719 Z M 21.332031 24.171875 "/>
<path style=" stroke:none;fill-rule:nonzero;fill:rgb(67.45098%,74.509804%,87.843137%);fill-opacity:1;" d="M 23.332031 24.171875 L 23.667969 24.511719 Z M 23.332031 24.171875 "/>
<path style=" stroke:none;fill-rule:nonzero;fill:rgb(76.470588%,81.568627%,91.372549%);fill-opacity:1;" d="M 30.332031 24.171875 L 30.667969 24.511719 Z M 30.332031 24.171875 "/>
<path style=" stroke:none;fill-rule:nonzero;fill:rgb(52.941176%,63.137255%,82.352941%);fill-opacity:1;" d="M 3 24.511719 L 3.332031 24.851562 Z M 3 24.511719 "/>
<path style=" stroke:none;fill-rule:nonzero;fill:rgb(67.45098%,74.509804%,87.843137%);fill-opacity:1;" d="M 8 24.511719 L 8.332031 24.851562 Z M 8 24.511719 "/>
<path style=" stroke:none;fill-rule:nonzero;fill:rgb(76.470588%,81.568627%,91.372549%);fill-opacity:1;" d="M 10.667969 24.511719 L 11 24.851562 Z M 10.667969 24.511719 "/>
<path style=" stroke:none;fill-rule:nonzero;fill:rgb(52.941176%,63.137255%,82.352941%);fill-opacity:1;" d="M 11 24.511719 L 11.332031 24.851562 L 11 24.511719 M 22 24.511719 L 22.332031 24.851562 Z M 22 24.511719 "/>
<path style=" stroke:none;fill-rule:nonzero;fill:rgb(76.470588%,81.568627%,91.372549%);fill-opacity:1;" d="M 23.332031 24.511719 L 23.667969 24.851562 Z M 23.332031 24.511719 "/>
<path style=" stroke:none;fill-rule:nonzero;fill:rgb(52.941176%,63.137255%,82.352941%);fill-opacity:1;" d="M 30 24.511719 L 30.332031 24.851562 Z M 30 24.511719 "/>
<path style=" stroke:none;fill-rule:nonzero;fill:rgb(76.470588%,81.568627%,91.372549%);fill-opacity:1;" d="M 3 24.851562 L 3.332031 25.191406 Z M 3 24.851562 "/>
<path style=" stroke:none;fill-rule:nonzero;fill:rgb(67.45098%,74.509804%,87.843137%);fill-opacity:1;" d="M 7.332031 24.851562 L 7.667969 25.191406 Z M 7.332031 24.851562 "/>
<path style=" stroke:none;fill-rule:nonzero;fill:rgb(76.470588%,81.568627%,91.372549%);fill-opacity:1;" d="M 10 24.851562 L 10.332031 25.191406 Z M 10 24.851562 "/>
<path style=" stroke:none;fill-rule:nonzero;fill:rgb(52.941176%,63.137255%,82.352941%);fill-opacity:1;" d="M 10.332031 24.851562 L 10.667969 25.191406 L 10.332031 24.851562 M 29.667969 24.851562 L 30 25.191406 Z M 29.667969 24.851562 "/>
<path style=" stroke:none;fill-rule:nonzero;fill:rgb(67.45098%,74.509804%,87.843137%);fill-opacity:1;" d="M 3.332031 25.191406 L 3.667969 25.53125 L 3.332031 25.191406 M 6.667969 25.191406 L 7 25.53125 Z M 6.667969 25.191406 "/>
<path style=" stroke:none;fill-rule:nonzero;fill:rgb(76.470588%,81.568627%,91.372549%);fill-opacity:1;" d="M 9.332031 25.191406 L 9.667969 25.53125 Z M 9.332031 25.191406 "/>
<path style=" stroke:none;fill-rule:nonzero;fill:rgb(52.941176%,63.137255%,82.352941%);fill-opacity:1;" d="M 9.667969 25.191406 L 10 25.53125 Z M 9.667969 25.191406 "/>
<path style=" stroke:none;fill-rule:nonzero;fill:rgb(76.470588%,81.568627%,91.372549%);fill-opacity:1;" d="M 29.667969 25.191406 L 30 25.53125 Z M 29.667969 25.191406 "/>
<path style=" stroke:none;fill-rule:nonzero;fill:rgb(52.941176%,63.137255%,82.352941%);fill-opacity:1;" d="M 3.667969 25.53125 L 4 25.871094 Z M 3.667969 25.53125 "/>
<path style=" stroke:none;fill-rule:nonzero;fill:rgb(67.45098%,74.509804%,87.843137%);fill-opacity:1;" d="M 6 25.53125 L 6.332031 25.871094 Z M 6 25.53125 "/>
<path style=" stroke:none;fill-rule:nonzero;fill:rgb(76.470588%,81.568627%,91.372549%);fill-opacity:1;" d="M 8.667969 25.53125 L 9 25.871094 Z M 8.667969 25.53125 "/>
<path style=" stroke:none;fill-rule:nonzero;fill:rgb(52.941176%,63.137255%,82.352941%);fill-opacity:1;" d="M 9 25.53125 L 9.332031 25.871094 Z M 9 25.53125 "/>
<path style=" stroke:none;fill-rule:nonzero;fill:rgb(76.470588%,81.568627%,91.372549%);fill-opacity:1;" d="M 22.332031 25.53125 L 22.667969 25.871094 Z M 22.332031 25.53125 "/>
<path style=" stroke:none;fill-rule:nonzero;fill:rgb(52.941176%,63.137255%,82.352941%);fill-opacity:1;" d="M 23.667969 25.53125 L 24 25.871094 Z M 23.667969 25.53125 "/>
<path style=" stroke:none;fill-rule:nonzero;fill:rgb(76.470588%,81.568627%,91.372549%);fill-opacity:1;" d="M 29.332031 25.53125 L 29.667969 25.871094 Z M 29.332031 25.53125 "/>
<path style=" stroke:none;fill-rule:nonzero;fill:rgb(52.941176%,63.137255%,82.352941%);fill-opacity:1;" d="M 4 25.871094 L 4.332031 26.210938 Z M 4 25.871094 "/>
<path style=" stroke:none;fill-rule:nonzero;fill:rgb(67.45098%,74.509804%,87.843137%);fill-opacity:1;" d="M 5.332031 25.871094 L 5.667969 26.210938 Z M 5.332031 25.871094 "/>
<path style=" stroke:none;fill-rule:nonzero;fill:rgb(76.470588%,81.568627%,91.372549%);fill-opacity:1;" d="M 8 25.871094 L 8.332031 26.210938 Z M 8 25.871094 "/>
<path style=" stroke:none;fill-rule:nonzero;fill:rgb(52.941176%,63.137255%,82.352941%);fill-opacity:1;" d="M 8.332031 25.871094 L 8.667969 26.210938 Z M 8.332031 25.871094 "/>
<path style=" stroke:none;fill-rule:nonzero;fill:rgb(67.45098%,74.509804%,87.843137%);fill-opacity:1;" d="M 22.332031 25.871094 L 22.667969 26.210938 L 22.332031 25.871094 M 23.667969 25.871094 L 24 26.210938 L 23.667969 25.871094 M 29 25.871094 L 29.332031 26.210938 Z M 29 25.871094 "/>
<path style=" stroke:none;fill-rule:nonzero;fill:rgb(52.941176%,63.137255%,82.352941%);fill-opacity:1;" d="M 4.332031 26.210938 L 4.667969 26.554688 Z M 4.332031 26.210938 "/>
<path style=" stroke:none;fill-rule:nonzero;fill:rgb(67.45098%,74.509804%,87.843137%);fill-opacity:1;" d="M 4.667969 26.210938 L 5 26.554688 Z M 4.667969 26.210938 "/>
<path style=" stroke:none;fill-rule:nonzero;fill:rgb(76.470588%,81.568627%,91.372549%);fill-opacity:1;" d="M 7.332031 26.210938 L 7.667969 26.554688 Z M 7.332031 26.210938 "/>
<path style=" stroke:none;fill-rule:nonzero;fill:rgb(52.941176%,63.137255%,82.352941%);fill-opacity:1;" d="M 7.667969 26.210938 L 8 26.554688 L 7.667969 26.210938 M 22.332031 26.210938 L 22.667969 26.554688 Z M 22.332031 26.210938 "/>
<path style=" stroke:none;fill-rule:nonzero;fill:rgb(76.470588%,81.568627%,91.372549%);fill-opacity:1;" d="M 23.667969 26.210938 L 24 26.554688 Z M 23.667969 26.210938 "/>
<path style=" stroke:none;fill-rule:nonzero;fill:rgb(52.941176%,63.137255%,82.352941%);fill-opacity:1;" d="M 28.667969 26.210938 L 29 26.554688 Z M 28.667969 26.210938 "/>
<path style=" stroke:none;fill-rule:nonzero;fill:rgb(76.470588%,81.568627%,91.372549%);fill-opacity:1;" d="M 6.667969 26.554688 L 7 26.894531 Z M 6.667969 26.554688 "/>
<path style=" stroke:none;fill-rule:nonzero;fill:rgb(52.941176%,63.137255%,82.352941%);fill-opacity:1;" d="M 7 26.554688 L 7.332031 26.894531 L 7 26.554688 M 28.332031 26.554688 L 28.667969 26.894531 Z M 28.332031 26.554688 "/>
<path style=" stroke:none;fill-rule:nonzero;fill:rgb(76.470588%,81.568627%,91.372549%);fill-opacity:1;" d="M 6 26.894531 L 6.332031 27.234375 Z M 6 26.894531 "/>
<path style=" stroke:none;fill-rule:nonzero;fill:rgb(52.941176%,63.137255%,82.352941%);fill-opacity:1;" d="M 6.332031 26.894531 L 6.667969 27.234375 L 6.332031 26.894531 M 28 26.894531 L 28.332031 27.234375 Z M 28 26.894531 "/>
<path style=" stroke:none;fill-rule:nonzero;fill:rgb(76.470588%,81.568627%,91.372549%);fill-opacity:1;" d="M 5.332031 27.234375 L 5.667969 27.574219 Z M 5.332031 27.234375 "/>
<path style=" stroke:none;fill-rule:nonzero;fill:rgb(52.941176%,63.137255%,82.352941%);fill-opacity:1;" d="M 5.777344 27.460938 L 5.890625 27.6875 Z M 5.777344 27.460938 "/>
<path style=" stroke:none;fill-rule:nonzero;fill:rgb(76.470588%,81.568627%,91.372549%);fill-opacity:1;" d="M 22.667969 27.234375 L 23 27.574219 Z M 22.667969 27.234375 "/>
<path style=" stroke:none;fill-rule:nonzero;fill:rgb(52.941176%,63.137255%,82.352941%);fill-opacity:1;" d="M 24 27.234375 L 24.332031 27.574219 Z M 24 27.234375 "/>
<path style=" stroke:none;fill-rule:nonzero;fill:rgb(67.45098%,74.509804%,87.843137%);fill-opacity:1;" d="M 27.667969 27.234375 L 28 27.574219 L 27.667969 27.234375 M 22.667969 27.574219 L 23 27.914062 L 22.667969 27.574219 M 24 27.574219 L 24.332031 27.914062 L 24 27.574219 M 27.332031 27.574219 L 27.667969 27.914062 L 27.332031 27.574219 M 6 27.914062 L 6.332031 28.253906 Z M 6 27.914062 "/>
<path style=" stroke:none;fill-rule:nonzero;fill:rgb(52.941176%,63.137255%,82.352941%);fill-opacity:1;" d="M 22.777344 28.140625 L 22.890625 28.367188 Z M 22.777344 28.140625 "/>
<path style=" stroke:none;fill-rule:nonzero;fill:rgb(76.470588%,81.568627%,91.372549%);fill-opacity:1;" d="M 24 27.914062 L 24.332031 28.253906 L 24 27.914062 M 27 27.914062 L 27.332031 28.253906 L 27 27.914062 M 6.332031 28.253906 L 6.667969 28.597656 Z M 6.332031 28.253906 "/>
<path style=" stroke:none;fill-rule:nonzero;fill:rgb(52.941176%,63.137255%,82.352941%);fill-opacity:1;" d="M 26.332031 28.253906 L 26.667969 28.597656 L 26.332031 28.253906 M 7 28.597656 L 7.332031 28.9375 Z M 7 28.597656 "/>
<path style=" stroke:none;fill-rule:nonzero;fill:rgb(67.45098%,74.509804%,87.843137%);fill-opacity:1;" d="M 26 28.597656 L 26.332031 28.9375 L 26 28.597656 M 7.332031 28.9375 L 7.667969 29.277344 Z M 7.332031 28.9375 "/>
<path style=" stroke:none;fill-rule:nonzero;fill:rgb(52.941176%,63.137255%,82.352941%);fill-opacity:1;" d="M 24.445312 29.164062 L 24.554688 29.390625 L 24.445312 29.164062 M 25.332031 28.9375 L 25.667969 29.277344 Z M 25.332031 28.9375 "/>
<path style=" stroke:none;fill-rule:nonzero;fill:rgb(76.470588%,81.568627%,91.372549%);fill-opacity:1;" d="M 25.667969 28.9375 L 26 29.277344 Z M 25.667969 28.9375 "/>
<path style=" stroke:none;fill-rule:nonzero;fill:rgb(52.941176%,63.137255%,82.352941%);fill-opacity:1;" d="M 8 29.277344 L 8.332031 29.617188 Z M 8 29.277344 "/>
<path style=" stroke:none;fill-rule:nonzero;fill:rgb(76.470588%,81.568627%,91.372549%);fill-opacity:1;" d="M 23 29.277344 L 23.332031 29.617188 L 23 29.277344 M 25 29.277344 L 25.332031 29.617188 L 25 29.277344 M 8.332031 29.617188 L 8.667969 29.957031 Z M 8.332031 29.617188 "/>
<path style=" stroke:none;fill-rule:nonzero;fill:rgb(52.941176%,63.137255%,82.352941%);fill-opacity:1;" d="M 8.667969 29.617188 L 9 29.957031 Z M 8.667969 29.617188 "/>
<path style=" stroke:none;fill-rule:nonzero;fill:rgb(67.45098%,74.509804%,87.843137%);fill-opacity:1;" d="M 23 29.617188 L 23.332031 29.957031 L 23 29.617188 M 24.332031 29.617188 L 24.667969 29.957031 Z M 24.332031 29.617188 "/>
<path style=" stroke:none;fill-rule:nonzero;fill:rgb(76.470588%,81.568627%,91.372549%);fill-opacity:1;" d="M 9 29.957031 L 9.332031 30.296875 Z M 9 29.957031 "/>
<path style=" stroke:none;fill-rule:nonzero;fill:rgb(52.941176%,63.137255%,82.352941%);fill-opacity:1;" d="M 9.332031 29.957031 L 9.667969 30.296875 L 9.332031 29.957031 M 23 29.957031 L 22.667969 30.636719 L 23 29.957031 M 10 30.296875 L 10.332031 30.636719 Z M 10 30.296875 "/>
<path style=" stroke:none;fill-rule:nonzero;fill:rgb(76.470588%,81.568627%,91.372549%);fill-opacity:1;" d="M 23 30.296875 L 23.332031 30.636719 L 23 30.296875 M 10.667969 30.636719 L 11 30.980469 Z M 10.667969 30.636719 "/>
<path style=" stroke:none;fill-rule:nonzero;fill:rgb(52.941176%,63.137255%,82.352941%);fill-opacity:1;" d="M 11 30.636719 L 11.332031 30.980469 Z M 11 30.636719 "/>
<path style=" stroke:none;fill-rule:nonzero;fill:rgb(67.45098%,74.509804%,87.843137%);fill-opacity:1;" d="M 22 30.636719 L 22.332031 30.980469 Z M 22 30.636719 "/>
<path style=" stroke:none;fill-rule:nonzero;fill:rgb(76.470588%,81.568627%,91.372549%);fill-opacity:1;" d="M 11.667969 30.980469 L 12 31.320312 Z M 11.667969 30.980469 "/>
<path style=" stroke:none;fill-rule:nonzero;fill:rgb(52.941176%,63.137255%,82.352941%);fill-opacity:1;" d="M 12 30.980469 L 12.332031 31.320312 L 12 30.980469 M 20.667969 30.980469 L 21 31.320312 Z M 20.667969 30.980469 "/>
<path style=" stroke:none;fill-rule:nonzero;fill:rgb(67.45098%,74.509804%,87.843137%);fill-opacity:1;" d="M 21 30.980469 L 21.332031 31.320312 Z M 21 30.980469 "/>
<path style=" stroke:none;fill-rule:nonzero;fill:rgb(76.470588%,81.568627%,91.372549%);fill-opacity:1;" d="M 21.332031 30.980469 L 21.667969 31.320312 L 21.332031 30.980469 M 13 31.320312 L 13.332031 31.660156 Z M 13 31.320312 "/>
<path style=" stroke:none;fill-rule:nonzero;fill:rgb(67.45098%,74.509804%,87.843137%);fill-opacity:1;" d="M 13.332031 31.320312 L 13.667969 31.660156 Z M 13.332031 31.320312 "/>
<path style=" stroke:none;fill-rule:nonzero;fill:rgb(52.941176%,63.137255%,82.352941%);fill-opacity:1;" d="M 13.890625 31.433594 L 14.109375 31.546875 L 13.890625 31.433594 M 19.222656 31.433594 L 19.445312 31.546875 Z M 19.222656 31.433594 "/>
<path style=" stroke:none;fill-rule:nonzero;fill:rgb(67.45098%,74.509804%,87.843137%);fill-opacity:1;" d="M 19.667969 31.320312 L 20 31.660156 Z M 19.667969 31.320312 "/>
<path style=" stroke:none;fill-rule:nonzero;fill:rgb(76.470588%,81.568627%,91.372549%);fill-opacity:1;" d="M 20 31.320312 L 20.332031 31.660156 L 20 31.320312 M 15.332031 31.660156 L 15.332031 32 L 18 32 Z M 15.332031 31.660156 "/>
</g>
</svg>
