<?xml version="1.0" standalone="no"?>
<!DOCTYPE svg PUBLIC "-//W3C//DTD SVG 20010904//EN"
 "http://www.w3.org/TR/2001/REC-SVG-20010904/DTD/svg10.dtd">
<svg version="1.0" xmlns="http://www.w3.org/2000/svg"
 width="417.000000pt" height="417.000000pt" viewBox="0 0 417.000000 417.000000"
 preserveAspectRatio="xMidYMid meet">
<metadata>
Created by potrace 1.14, written by Peter Selinger 2001-2017
</metadata>
<g transform="translate(0.000000,417.000000) scale(0.100000,-0.100000)"
fill="#000000" stroke="none">
<path d="M2101 3150 c-5 -14 -36 -106 -67 -205 -31 -99 -73 -232 -94 -295
l-37 -115 -344 -5 -344 -5 55 -41 c30 -22 147 -107 260 -188 113 -81 214 -156
225 -167 24 -23 29 -4 -98 -371 -59 -170 -91 -278 -84 -278 7 0 75 46 152 103
325 239 377 277 386 277 5 0 131 -87 281 -194 150 -107 274 -190 276 -186 3 8
-145 452 -195 588 -9 25 -12 46 -7 51 5 4 61 46 124 91 63 46 162 118 220 160
58 42 130 94 160 116 l55 39 -346 3 -345 2 -99 293 c-54 160 -104 305 -111
322 l-12 30 -11 -25z"/>
<path d="M720 1988 c-34 -106 -63 -199 -65 -205 -3 -10 -58 -13 -230 -13 -124
0 -225 -3 -225 -7 1 -5 76 -62 168 -129 92 -66 168 -127 170 -136 2 -9 -24
-101 -57 -204 -34 -104 -61 -192 -61 -197 0 -17 32 3 196 118 89 63 166 115
171 115 4 0 85 -56 178 -124 94 -68 171 -123 173 -121 4 3 -87 297 -115 373
-9 25 -12 46 -7 51 5 4 82 60 172 125 89 64 162 121 162 127 0 5 -86 9 -213 9
l-212 0 -65 201 c-35 110 -68 202 -72 205 -4 2 -34 -82 -68 -188z"/>
<path d="M3380 1978 l-65 -203 -219 -3 c-135 -1 -216 -6 -214 -12 2 -5 24 -24
50 -42 26 -18 101 -73 168 -122 110 -80 121 -91 117 -115 -2 -14 -31 -108 -64
-208 -34 -101 -56 -183 -51 -183 9 0 172 114 280 197 31 24 61 43 67 43 5 0
90 -56 187 -125 98 -68 180 -123 181 -121 2 2 -16 59 -41 127 -79 219 -98 279
-93 292 3 7 31 31 63 52 149 100 284 199 284 206 0 5 -100 10 -222 11 l-221 3
-66 203 c-36 111 -68 202 -71 202 -3 0 -35 -91 -70 -202z"/>
</g>
</svg>
